<svg width="36" height="36" viewBox="0 0 36 36" fill="none" xmlns="http://www.w3.org/2000/svg">
<g id="Instagram">
<path id="Vector" d="M18.0008 4.90906C14.4456 4.90906 13.9994 4.9246 12.6031 4.98815C11.2095 5.05197 10.2583 5.2726 9.42595 5.59633C8.56498 5.93069 7.83464 6.37797 7.10702 7.10588C6.37886 7.83351 5.9316 8.56388 5.59616 9.4246C5.27162 10.2572 5.05072 11.2088 4.988 12.6019C4.92554 13.9982 4.90918 14.4447 4.90918 18C4.90918 21.5552 4.925 22.0001 4.98827 23.3964C5.05236 24.7901 5.27299 25.7413 5.59643 26.5737C5.93106 27.4347 6.37832 28.1651 7.1062 28.8927C7.83355 29.6209 8.56389 30.0692 9.42432 30.4036C10.2572 30.7273 11.2087 30.948 12.602 31.0118C13.9984 31.0753 14.4443 31.0909 17.9991 31.0909C21.5546 31.0909 21.9994 31.0753 23.3957 31.0118C24.7893 30.948 25.7416 30.7273 26.5745 30.4036C27.4352 30.0692 28.1645 29.6209 28.8918 28.8927C29.62 28.1651 30.0672 27.4347 30.4027 26.574C30.7245 25.7413 30.9454 24.7898 31.0108 23.3967C31.0736 22.0003 31.0899 21.5552 31.0899 18C31.0899 14.4447 31.0736 13.9985 31.0108 12.6021C30.9454 11.2085 30.7245 10.2572 30.4027 9.42488C30.0672 8.56388 29.62 7.83351 28.8918 7.10588C28.1637 6.37769 27.4355 5.93042 26.5737 5.59633C25.7392 5.2726 24.7874 5.05197 23.3938 4.98815C21.9975 4.9246 21.5529 4.90906 17.9967 4.90906H18.0008ZM16.8265 7.26815C17.175 7.2676 17.5639 7.26815 18.0008 7.26815C21.4959 7.26815 21.9102 7.28069 23.2904 7.34342C24.5668 7.40178 25.2595 7.61506 25.7209 7.79424C26.3318 8.03151 26.7673 8.31515 27.2252 8.77333C27.6834 9.23151 27.967 9.66788 28.2048 10.2788C28.384 10.7397 28.5976 11.4324 28.6556 12.7088C28.7184 14.0888 28.732 14.5033 28.732 17.997C28.732 21.4906 28.7184 21.9051 28.6556 23.2851C28.5973 24.5615 28.384 25.2542 28.2048 25.7151C27.9676 26.3261 27.6834 26.7611 27.2252 27.219C26.7671 27.6771 26.3321 27.9608 25.7209 28.1981C25.26 28.3781 24.5668 28.5908 23.2904 28.6491C21.9105 28.7119 21.4959 28.7255 18.0008 28.7255C14.5053 28.7255 14.0911 28.7119 12.7111 28.6491C11.4348 28.5902 10.7421 28.377 10.2804 28.1978C9.66949 27.9605 9.23314 27.6769 8.77497 27.2187C8.3168 26.7605 8.03318 26.3252 7.79536 25.7141C7.61619 25.2531 7.40265 24.5604 7.34456 23.2841C7.28184 21.9041 7.26929 21.4895 7.26929 17.9937C7.26929 14.4979 7.28184 14.0855 7.34456 12.7055C7.40292 11.4291 7.61619 10.7364 7.79536 10.275C8.03263 9.66406 8.3168 9.22769 8.77497 8.76951C9.23314 8.31133 9.66949 8.02769 10.2804 7.78988C10.7418 7.60988 11.4348 7.39715 12.7111 7.33851C13.9187 7.28397 14.3867 7.2676 16.8265 7.26488V7.26815ZM24.9884 9.44178C24.1211 9.44178 23.4175 10.1446 23.4175 11.0121C23.4175 11.8794 24.1211 12.5831 24.9884 12.5831C25.8556 12.5831 26.5593 11.8794 26.5593 11.0121C26.5593 10.1449 25.8556 9.44124 24.9884 9.44124V9.44178ZM18.0008 11.2772C14.2883 11.2772 11.2783 14.2873 11.2783 18C11.2783 21.7126 14.2883 24.7213 18.0008 24.7213C21.7133 24.7213 24.7222 21.7126 24.7222 18C24.7222 14.2873 21.713 11.2772 18.0005 11.2772H18.0008ZM18.0008 13.6363C20.4105 13.6363 22.3643 15.5899 22.3643 18C22.3643 20.4098 20.4105 22.3636 18.0008 22.3636C15.5908 22.3636 13.6373 20.4098 13.6373 18C13.6373 15.5899 15.5908 13.6363 18.0008 13.6363V13.6363Z" fill="url(#paint0_radial_109_579)"/>
<path id="Vector_2" d="M18.0008 4.90906C14.4456 4.90906 13.9994 4.9246 12.6031 4.98815C11.2095 5.05197 10.2583 5.2726 9.42595 5.59633C8.56498 5.93069 7.83464 6.37797 7.10702 7.10588C6.37886 7.83351 5.9316 8.56388 5.59616 9.4246C5.27162 10.2572 5.05072 11.2088 4.988 12.6019C4.92554 13.9982 4.90918 14.4447 4.90918 18C4.90918 21.5552 4.925 22.0001 4.98827 23.3964C5.05236 24.7901 5.27299 25.7413 5.59643 26.5737C5.93106 27.4347 6.37832 28.1651 7.1062 28.8927C7.83355 29.6209 8.56389 30.0692 9.42432 30.4036C10.2572 30.7273 11.2087 30.948 12.602 31.0118C13.9984 31.0753 14.4443 31.0909 17.9991 31.0909C21.5546 31.0909 21.9994 31.0753 23.3957 31.0118C24.7893 30.948 25.7416 30.7273 26.5745 30.4036C27.4352 30.0692 28.1645 29.6209 28.8918 28.8927C29.62 28.1651 30.0672 27.4347 30.4027 26.574C30.7245 25.7413 30.9454 24.7898 31.0108 23.3967C31.0736 22.0003 31.0899 21.5552 31.0899 18C31.0899 14.4447 31.0736 13.9985 31.0108 12.6021C30.9454 11.2085 30.7245 10.2572 30.4027 9.42488C30.0672 8.56388 29.62 7.83351 28.8918 7.10588C28.1637 6.37769 27.4355 5.93042 26.5737 5.59633C25.7392 5.2726 24.7874 5.05197 23.3938 4.98815C21.9975 4.9246 21.5529 4.90906 17.9967 4.90906H18.0008ZM16.8265 7.26815C17.175 7.2676 17.5639 7.26815 18.0008 7.26815C21.4959 7.26815 21.9102 7.28069 23.2904 7.34342C24.5668 7.40178 25.2595 7.61506 25.7209 7.79424C26.3318 8.03151 26.7673 8.31515 27.2252 8.77333C27.6834 9.23151 27.967 9.66788 28.2048 10.2788C28.384 10.7397 28.5976 11.4324 28.6556 12.7088C28.7184 14.0888 28.732 14.5033 28.732 17.997C28.732 21.4906 28.7184 21.9051 28.6556 23.2851C28.5973 24.5615 28.384 25.2542 28.2048 25.7151C27.9676 26.3261 27.6834 26.7611 27.2252 27.219C26.7671 27.6771 26.3321 27.9608 25.7209 28.1981C25.26 28.3781 24.5668 28.5908 23.2904 28.6491C21.9105 28.7119 21.4959 28.7255 18.0008 28.7255C14.5053 28.7255 14.0911 28.7119 12.7111 28.6491C11.4348 28.5902 10.7421 28.377 10.2804 28.1978C9.66949 27.9605 9.23314 27.6769 8.77497 27.2187C8.3168 26.7605 8.03318 26.3252 7.79536 25.7141C7.61619 25.2531 7.40265 24.5604 7.34456 23.2841C7.28184 21.9041 7.26929 21.4895 7.26929 17.9937C7.26929 14.4979 7.28184 14.0855 7.34456 12.7055C7.40292 11.4291 7.61619 10.7364 7.79536 10.275C8.03263 9.66406 8.3168 9.22769 8.77497 8.76951C9.23314 8.31133 9.66949 8.02769 10.2804 7.78988C10.7418 7.60988 11.4348 7.39715 12.7111 7.33851C13.9187 7.28397 14.3867 7.2676 16.8265 7.26488V7.26815ZM24.9884 9.44178C24.1211 9.44178 23.4175 10.1446 23.4175 11.0121C23.4175 11.8794 24.1211 12.5831 24.9884 12.5831C25.8556 12.5831 26.5593 11.8794 26.5593 11.0121C26.5593 10.1449 25.8556 9.44124 24.9884 9.44124V9.44178ZM18.0008 11.2772C14.2883 11.2772 11.2783 14.2873 11.2783 18C11.2783 21.7126 14.2883 24.7213 18.0008 24.7213C21.7133 24.7213 24.7222 21.7126 24.7222 18C24.7222 14.2873 21.713 11.2772 18.0005 11.2772H18.0008ZM18.0008 13.6363C20.4105 13.6363 22.3643 15.5899 22.3643 18C22.3643 20.4098 20.4105 22.3636 18.0008 22.3636C15.5908 22.3636 13.6373 20.4098 13.6373 18C13.6373 15.5899 15.5908 13.6363 18.0008 13.6363V13.6363Z" fill="url(#paint1_radial_109_579)"/>
</g>
<defs>
<radialGradient id="paint0_radial_109_579" cx="0" cy="0" r="1" gradientUnits="userSpaceOnUse" gradientTransform="translate(11.8635 33.1074) rotate(-90) scale(25.9481 24.1328)">
<stop stop-color="#FFDD55"/>
<stop offset="0.1" stop-color="#FFDD55"/>
<stop offset="0.5" stop-color="#FF543E"/>
<stop offset="1" stop-color="#C837AB"/>
</radialGradient>
<radialGradient id="paint1_radial_109_579" cx="0" cy="0" r="1" gradientUnits="userSpaceOnUse" gradientTransform="translate(0.523765 6.79515) rotate(78.6811) scale(11.5989 47.8093)">
<stop stop-color="#3771C8"/>
<stop offset="0.128" stop-color="#3771C8"/>
<stop offset="1" stop-color="#6600FF" stop-opacity="0"/>
</radialGradient>
</defs>
</svg>
