<svg width="30" height="30" viewBox="0 0 30 30" fill="none" xmlns="http://www.w3.org/2000/svg">
<g id="icons8-shopee-96 1">
<path id="Vector" d="M22.9263 26.875H7.07251C5.73751 26.875 4.63751 25.8256 4.57501 24.4919L3.78001 7.52937C3.76314 7.17312 4.04751 6.875 4.40439 6.875H25.5944C25.9513 6.875 26.2356 7.17312 26.2188 7.52937L25.4238 24.4919C25.3613 25.8256 24.2613 26.875 22.9263 26.875Z" fill="#EF4E2D"/>
<path id="Vector_2" opacity="0.05" d="M15.0411 10.0457C12.523 10.0457 10.6242 11.6682 10.6242 13.82C10.6242 16.2919 12.8892 17.12 14.5436 17.7244C16.5498 18.4575 17.2173 18.8682 17.2173 19.8557C17.2173 20.64 16.1842 21.3019 14.9617 21.3019C13.4223 21.3019 12.0411 20.1369 12.0273 20.1257L11.9623 20.065C11.8461 19.9582 11.6948 19.9 11.5392 19.9C11.5155 19.9 11.4911 19.9013 11.4673 19.9044C11.2867 19.9257 11.1242 20.0238 11.0223 20.1744L10.3686 21.1382C10.1867 21.4063 10.2398 21.7682 10.4905 21.9732L10.5567 22.0275C11.0442 22.4219 12.7955 23.7044 14.9623 23.7044C17.5748 23.7044 19.6211 22.0138 19.6211 19.8557C19.6211 17.0213 17.1648 16.1238 15.3711 15.4688C13.6417 14.8369 13.028 14.4925 13.028 13.82C13.028 13.025 13.8755 12.4482 15.043 12.4482C15.958 12.4482 16.7723 12.8132 17.1761 13.0313C17.2317 13.0613 17.433 13.1819 17.5448 13.2569L17.6261 13.3113C17.7298 13.3807 17.8511 13.4169 17.9736 13.4169C18.018 13.4169 18.063 13.4119 18.1067 13.4025C18.273 13.3663 18.4167 13.2638 18.5061 13.1194L19.1048 12.1457C19.2817 11.8575 19.198 11.4807 18.9148 11.2957L18.8167 11.2313C18.2917 10.8775 16.8617 10.0457 15.0411 10.0457Z" fill="black"/>
<path id="Vector_3" opacity="0.07" d="M15.041 10.3582C12.701 10.3582 10.9367 11.8463 10.9367 13.82C10.9367 16.0738 12.996 16.8263 14.6504 17.4313C16.6079 18.1469 17.5298 18.6188 17.5298 19.8563C17.5298 20.8263 16.3779 21.615 14.9617 21.615C13.2967 21.615 11.8385 20.3757 11.8235 20.3632L11.7498 20.295C11.6917 20.2419 11.616 20.2125 11.5385 20.2125C11.5267 20.2125 11.5148 20.2132 11.5023 20.2144C11.4123 20.225 11.3304 20.2744 11.2798 20.3494L10.626 21.3132C10.5354 21.4469 10.5617 21.6282 10.6873 21.7307L10.7535 21.785C11.2198 22.1625 12.8973 23.3919 14.961 23.3919C17.3985 23.3919 19.3073 21.8388 19.3073 19.8557C19.3073 17.24 17.0642 16.4207 15.2623 15.7619C13.5298 15.1288 12.7135 14.7307 12.7135 13.82C12.7135 12.8444 13.6923 12.1357 15.041 12.1357C16.0248 12.1357 16.8929 12.5244 17.3223 12.7557C17.391 12.7925 17.5992 12.9182 17.7167 12.9963L17.7979 13.0507C17.8498 13.0857 17.9104 13.1032 17.9717 13.1032C17.9942 13.1032 18.016 13.1007 18.0385 13.0963C18.1217 13.0782 18.1935 13.0269 18.2379 12.9544L18.8367 11.9807C18.9254 11.8369 18.8829 11.6482 18.7417 11.5557L18.6435 11.4913C18.141 11.1525 16.7754 10.3582 15.041 10.3582Z" fill="black"/>
<path id="Vector_4" d="M20.3125 7.1875H19.0625C19.0625 4.6025 17.24 2.5 15 2.5C12.76 2.5 10.9375 4.6025 10.9375 7.1875H9.6875C9.6875 3.91375 12.0706 1.25 15 1.25C17.9294 1.25 20.3125 3.91375 20.3125 7.1875Z" fill="#EF4E2D"/>
<path id="Vector_5" d="M15.1555 16.055C13.4423 15.4287 12.4023 14.9656 12.4023 13.8194C12.4023 12.6625 13.5123 11.8225 15.0423 11.8225C16.0955 11.8225 17.0167 12.235 17.4723 12.48C17.5498 12.5219 17.7686 12.6531 17.8923 12.7362L17.9736 12.7906L18.5723 11.8169L18.4742 11.7525C17.9917 11.4269 16.6905 10.6694 15.043 10.6694C12.8811 10.6694 11.2511 12.0231 11.2511 13.8187C11.2511 15.8544 13.1155 16.5356 14.7605 17.1369C16.6792 17.8381 17.8442 18.3712 17.8442 19.855C17.8442 20.9975 16.5523 21.9262 14.9636 21.9262C13.1736 21.9262 11.6348 20.6106 11.6205 20.5981L11.5405 20.5244L10.8867 21.4881L10.953 21.5425C11.398 21.9031 13.0005 23.0787 14.963 23.0787C17.2248 23.0787 18.9967 21.6625 18.9967 19.855C18.9961 17.4581 16.9555 16.7131 15.1555 16.055Z" fill="white"/>
</g>
</svg>
