<svg width="226" height="77" viewBox="0 0 226 77" fill="none" xmlns="http://www.w3.org/2000/svg">
<path d="M4.928 25.5V25.18H6.272C6.592 25.18 6.86933 25.1373 7.104 25.052C7.36 24.9453 7.552 24.7427 7.68 24.444C7.82933 24.1453 7.904 23.6973 7.904 23.1V2.972H5.856C4.704 2.972 3.76533 3.12133 3.04 3.42C2.31467 3.71866 1.77067 4.19866 1.408 4.86C1.04533 5.5 0.821333 6.364 0.736 7.452L0.64 8.86H0.32L0.544 2.652H20.352L20.576 8.86H20.256L20.16 7.452C20.096 6.364 19.872 5.5 19.488 4.86C19.1253 4.19866 18.5813 3.71866 17.856 3.42C17.1307 3.12133 16.192 2.972 15.04 2.972H12.992V23.1C12.992 23.6973 13.056 24.1453 13.184 24.444C13.3333 24.7427 13.536 24.9453 13.792 25.052C14.048 25.1373 14.3253 25.18 14.624 25.18H15.968V25.5H4.928ZM21.4503 25.5V25.18H21.8343C22.1543 25.18 22.4849 25.1373 22.8263 25.052C23.1889 24.9453 23.4876 24.7427 23.7223 24.444C23.9783 24.1453 24.1063 23.6973 24.1063 23.1V3.452C24.1063 2.876 23.9783 2.44933 23.7223 2.172C23.4663 1.89467 23.1569 1.71333 22.7943 1.628C22.4529 1.54266 22.1329 1.5 21.8343 1.5H21.4503V1.18H28.9703V7.612C28.9703 8.01733 28.9703 8.42267 28.9703 8.828C28.9703 9.23333 28.9703 9.63867 28.9703 10.044C28.9703 10.4493 28.9596 10.8653 28.9383 11.292H29.0023C29.2583 10.332 29.6209 9.61733 30.0903 9.148C30.5809 8.65733 31.1356 8.33733 31.7543 8.188C32.3729 8.01733 32.9916 7.932 33.6103 7.932C35.4876 7.932 36.8849 8.42267 37.8022 9.404C38.7196 10.3853 39.1783 11.9533 39.1783 14.108V22.908C39.1783 23.5693 39.2529 24.06 39.4023 24.38C39.5729 24.7 39.8183 24.9133 40.1383 25.02C40.4583 25.1267 40.8529 25.18 41.3223 25.18H41.4183V25.5H34.3143V13.052C34.3143 11.6653 34.1329 10.6307 33.7703 9.948C33.4076 9.244 32.7889 8.892 31.9143 8.892C31.1676 8.892 30.5703 9.148 30.1223 9.66C29.6956 10.172 29.3969 10.8867 29.2263 11.804C29.0556 12.7213 28.9703 13.7773 28.9703 14.972V23.1C28.9703 23.6973 29.0876 24.1453 29.3223 24.444C29.5783 24.7427 29.8876 24.9453 30.2503 25.052C30.6129 25.1373 30.9436 25.18 31.2423 25.18H31.6263V25.5H21.4503ZM48.81 25.82C47.7433 25.82 46.826 25.6173 46.058 25.212C45.29 24.8067 44.7033 24.2307 44.298 23.484C43.8927 22.716 43.69 21.8307 43.69 20.828C43.69 19.1853 44.2873 18.0013 45.482 17.276C46.6767 16.5507 48.4687 16.1453 50.858 16.06L53.482 15.964V11.9C53.482 10.9613 53.418 10.236 53.29 9.724C53.162 9.19067 52.9593 8.81733 52.682 8.604C52.4047 8.36933 52.0207 8.252 51.53 8.252C50.9753 8.252 50.538 8.412 50.218 8.732C49.898 9.03067 49.674 9.55333 49.546 10.3C49.418 11.0253 49.354 12.0387 49.354 13.34C47.9247 13.34 46.8473 13.18 46.122 12.86C45.3967 12.5187 45.034 11.9533 45.034 11.164C45.034 10.396 45.3327 9.77733 45.93 9.308C46.5273 8.81733 47.3273 8.46533 48.33 8.252C49.3327 8.03867 50.4313 7.932 51.626 7.932C53.866 7.932 55.5407 8.33733 56.65 9.148C57.7807 9.95867 58.346 11.3667 58.346 13.372V22.908C58.346 23.484 58.3993 23.9427 58.506 24.284C58.634 24.604 58.8367 24.8387 59.114 24.988C59.4127 25.116 59.7967 25.18 60.266 25.18H60.394V25.5H53.546V22.268H53.482C53.2047 23.1853 52.8313 23.9 52.362 24.412C51.8927 24.924 51.3487 25.2867 50.73 25.5C50.1327 25.7133 49.4927 25.82 48.81 25.82ZM50.442 24.924C51.0607 24.924 51.594 24.6893 52.042 24.22C52.5113 23.7507 52.8633 23.1427 53.098 22.396C53.354 21.6493 53.482 20.86 53.482 20.028V16.284L52.042 16.348C51.1887 16.3907 50.5167 16.572 50.026 16.892C49.5353 17.1907 49.1833 17.66 48.97 18.3C48.7567 18.9187 48.65 19.7293 48.65 20.732C48.65 21.756 48.714 22.5773 48.842 23.196C48.97 23.8147 49.162 24.2627 49.418 24.54C49.6953 24.796 50.0367 24.924 50.442 24.924ZM61.9503 25.5V25.18H62.3343C62.6543 25.18 62.9849 25.1373 63.3263 25.052C63.6889 24.9453 63.9876 24.7427 64.2223 24.444C64.4783 24.1453 64.6063 23.6973 64.6063 23.1V10.62C64.6063 10.044 64.4783 9.61733 64.2223 9.34C63.9663 9.06267 63.6569 8.88133 63.2943 8.796C62.9529 8.71067 62.6329 8.668 62.3343 8.668H61.9503V8.348H69.4703V11.26H69.5343C69.7903 10.3 70.1529 9.58533 70.6223 9.116C71.0916 8.64667 71.6356 8.33733 72.2543 8.188C72.8729 8.01733 73.4916 7.932 74.1103 7.932C75.9876 7.932 77.3849 8.42267 78.3022 9.404C79.2196 10.3853 79.6783 11.9533 79.6783 14.108V22.908C79.6783 23.5693 79.7529 24.06 79.9023 24.38C80.0729 24.7 80.3183 24.9133 80.6383 25.02C80.9583 25.1267 81.3529 25.18 81.8223 25.18H81.9183V25.5H74.8143V13.052C74.8143 11.6653 74.6329 10.6307 74.2703 9.948C73.9076 9.244 73.2889 8.892 72.4143 8.892C71.6676 8.892 71.0703 9.148 70.6223 9.66C70.1956 10.172 69.8969 10.8867 69.7263 11.804C69.5556 12.7213 69.4703 13.7773 69.4703 14.972V23.1C69.4703 23.6973 69.5876 24.1453 69.8223 24.444C70.0783 24.7427 70.3876 24.9453 70.7503 25.052C71.1129 25.1373 71.4436 25.18 71.7423 25.18H72.1263V25.5H61.9503ZM83.294 25.5V25.18H83.678C83.998 25.18 84.3287 25.1373 84.67 25.052C85.0327 24.9453 85.3313 24.7427 85.566 24.444C85.822 24.1453 85.95 23.6973 85.95 23.1V3.452C85.95 2.876 85.822 2.44933 85.566 2.172C85.31 1.89467 85.0007 1.71333 84.638 1.628C84.2967 1.54266 83.9767 1.5 83.678 1.5H83.294V1.18H90.814V15.004C90.814 15.2387 90.814 15.4733 90.814 15.708C90.814 15.9427 90.814 16.188 90.814 16.444C90.814 16.6787 90.8033 16.9133 90.782 17.148C90.782 17.3827 90.782 17.628 90.782 17.884L96.958 11.388C97.1927 11.132 97.3847 10.908 97.534 10.716C97.6833 10.5027 97.79 10.3107 97.854 10.14C97.918 9.96933 97.95 9.82 97.95 9.692C97.95 9.308 97.6513 9.04133 97.054 8.892C96.478 8.74267 95.5287 8.668 94.206 8.668V8.348H101.95V8.668C101.587 8.668 101.257 8.7 100.958 8.764C100.659 8.80667 100.35 8.924 100.03 9.116C99.71 9.308 99.3367 9.58533 98.91 9.948C98.5047 10.2893 98.014 10.7693 97.438 11.388L94.846 14.108L100.798 22.972C101.225 23.612 101.566 24.092 101.822 24.412C102.099 24.7107 102.323 24.9133 102.494 25.02C102.686 25.1267 102.867 25.18 103.038 25.18H103.102V25.5H102.654C101.481 25.5 100.489 25.4787 99.678 25.436C98.8887 25.372 98.2167 25.2547 97.662 25.084C97.1073 24.892 96.6167 24.604 96.19 24.22C95.7847 23.836 95.3687 23.3133 94.942 22.652L91.646 17.468L90.814 18.332V23.1C90.814 23.6973 90.9313 24.1453 91.166 24.444C91.422 24.7427 91.7313 24.9453 92.094 25.052C92.4567 25.1373 92.7873 25.18 93.086 25.18H93.47V25.5H83.294ZM111.273 32.86C112.724 32.86 113.908 32.732 114.825 32.476C115.764 32.2413 116.521 31.868 117.097 31.356C117.673 30.8653 118.164 30.2253 118.569 29.436C118.975 28.668 119.401 27.7507 119.849 26.684L112.073 10.204C111.903 9.82 111.732 9.52133 111.561 9.308C111.412 9.07333 111.252 8.91333 111.081 8.828C110.911 8.72133 110.708 8.668 110.473 8.668H110.281V8.348H119.465L119.497 8.668H118.857C118.239 8.668 117.78 8.74267 117.481 8.892C117.183 9.04133 117.033 9.29733 117.033 9.66C117.033 9.852 117.065 10.0653 117.129 10.3C117.193 10.5347 117.289 10.8013 117.417 11.1L120.553 18.3C120.745 18.7053 120.905 19.0573 121.033 19.356C121.161 19.6547 121.268 19.9107 121.353 20.124C121.439 20.316 121.513 20.508 121.577 20.7C121.663 20.8707 121.748 21.052 121.833 21.244C122.004 20.796 122.164 20.38 122.313 19.996C122.463 19.5907 122.591 19.228 122.697 18.908L125.417 11.548C125.545 11.2067 125.641 10.908 125.705 10.652C125.769 10.3747 125.801 10.1293 125.801 9.916C125.801 9.44667 125.631 9.12667 125.289 8.956C124.969 8.764 124.436 8.668 123.689 8.668H122.345V8.348H128.809V8.668H128.745C128.276 8.668 127.871 8.74267 127.529 8.892C127.188 9.04133 126.889 9.29733 126.633 9.66C126.377 10.0227 126.132 10.524 125.897 11.164L120.585 25.628C120.031 27.164 119.497 28.4227 118.985 29.404C118.473 30.3853 117.897 31.1533 117.257 31.708C116.617 32.2627 115.828 32.6467 114.889 32.86C113.951 33.0733 112.777 33.18 111.369 33.18H111.273V32.86ZM138.573 25.82C136.013 25.82 133.997 25.084 132.525 23.612C131.053 22.1187 130.317 19.868 130.317 16.86C130.317 13.852 131.021 11.612 132.429 10.14C133.837 8.668 135.917 7.932 138.669 7.932C141.229 7.932 143.245 8.668 144.717 10.14C146.189 11.612 146.925 13.852 146.925 16.86C146.925 19.868 146.21 22.1187 144.781 23.612C143.373 25.084 141.303 25.82 138.573 25.82ZM138.637 25.5C139.469 25.5 140.119 25.2227 140.589 24.668C141.079 24.1133 141.431 23.2067 141.645 21.948C141.858 20.6893 141.965 18.9933 141.965 16.86C141.965 14.7267 141.858 13.0413 141.645 11.804C141.431 10.5453 141.079 9.63867 140.589 9.084C140.098 8.52933 139.447 8.252 138.637 8.252C137.805 8.252 137.143 8.52933 136.653 9.084C136.162 9.63867 135.81 10.5453 135.597 11.804C135.383 13.0413 135.277 14.7267 135.277 16.86C135.277 18.9933 135.383 20.6893 135.597 21.948C135.81 23.2067 136.162 24.1133 136.653 24.668C137.143 25.2227 137.805 25.5 138.637 25.5ZM157.078 25.82C155.2 25.82 153.803 25.3293 152.886 24.348C151.968 23.3667 151.51 21.7987 151.51 19.644V10.94C151.51 10.2787 151.424 9.788 151.254 9.468C151.104 9.148 150.87 8.93467 150.549 8.828C150.251 8.72133 149.856 8.668 149.366 8.668H149.27V8.348H156.374V20.7C156.374 21.6173 156.448 22.3853 156.598 23.004C156.768 23.6227 157.024 24.092 157.366 24.412C157.728 24.7107 158.198 24.86 158.774 24.86C159.542 24.86 160.139 24.604 160.566 24.092C160.992 23.58 161.291 22.8653 161.462 21.948C161.632 21.0307 161.718 19.9747 161.718 18.78V10.748C161.718 10.1293 161.59 9.68133 161.334 9.404C161.099 9.10533 160.8 8.91333 160.438 8.828C160.096 8.72133 159.766 8.668 159.446 8.668H159.318V8.348H166.582V23.228C166.582 23.7827 166.71 24.2093 166.966 24.508C167.222 24.7853 167.52 24.9667 167.862 25.052C168.224 25.1373 168.555 25.18 168.854 25.18H168.982V25.5H161.718V22.492H161.654C161.462 23.196 161.206 23.772 160.886 24.22C160.566 24.668 160.203 25.0093 159.798 25.244C159.392 25.4573 158.955 25.6067 158.486 25.692C158.016 25.7773 157.547 25.82 157.078 25.82ZM177.577 25.5V25.18H178.281C178.601 25.18 178.931 25.1373 179.273 25.052C179.635 24.9453 179.934 24.7427 180.169 24.444C180.425 24.1453 180.553 23.6973 180.553 23.1V8.668H177.705V8.348H180.553V7.164C180.553 5.18 181.075 3.644 182.121 2.556C183.187 1.44667 185.011 0.891998 187.593 0.891998C188.766 0.891998 189.705 0.998665 190.409 1.212C191.113 1.42533 191.625 1.71333 191.945 2.076C192.265 2.41733 192.425 2.82267 192.425 3.292C192.425 3.74 192.275 4.11333 191.977 4.412C191.699 4.71067 191.262 4.93467 190.665 5.084C190.089 5.23333 189.363 5.308 188.489 5.308C188.489 4.26267 188.435 3.452 188.329 2.876C188.243 2.27867 188.083 1.852 187.849 1.596C187.635 1.34 187.337 1.212 186.953 1.212C186.377 1.212 185.971 1.48933 185.737 2.044C185.523 2.59867 185.417 3.612 185.417 5.084V8.348H189.833V8.668H185.417V23.1C185.417 23.6973 185.534 24.1453 185.769 24.444C186.025 24.7427 186.334 24.9453 186.697 25.052C187.059 25.1373 187.39 25.18 187.689 25.18H189.193V25.5H177.577ZM199.76 25.82C197.2 25.82 195.184 25.084 193.712 23.612C192.24 22.1187 191.504 19.868 191.504 16.86C191.504 13.852 192.208 11.612 193.616 10.14C195.024 8.668 197.104 7.932 199.856 7.932C202.416 7.932 204.432 8.668 205.904 10.14C207.376 11.612 208.112 13.852 208.112 16.86C208.112 19.868 207.397 22.1187 205.968 23.612C204.56 25.084 202.491 25.82 199.76 25.82ZM199.824 25.5C200.656 25.5 201.307 25.2227 201.776 24.668C202.267 24.1133 202.619 23.2067 202.832 21.948C203.045 20.6893 203.152 18.9933 203.152 16.86C203.152 14.7267 203.045 13.0413 202.832 11.804C202.619 10.5453 202.267 9.63867 201.776 9.084C201.285 8.52933 200.635 8.252 199.824 8.252C198.992 8.252 198.331 8.52933 197.84 9.084C197.349 9.63867 196.997 10.5453 196.784 11.804C196.571 13.0413 196.464 14.7267 196.464 16.86C196.464 18.9933 196.571 20.6893 196.784 21.948C196.997 23.2067 197.349 24.1133 197.84 24.668C198.331 25.2227 198.992 25.5 199.824 25.5ZM210.265 25.5V25.18H210.553C210.873 25.18 211.204 25.1373 211.545 25.052C211.908 24.9453 212.206 24.7427 212.441 24.444C212.697 24.1453 212.825 23.6973 212.825 23.1V10.62C212.825 10.044 212.697 9.61733 212.441 9.34C212.185 9.06267 211.876 8.88133 211.513 8.796C211.172 8.71067 210.852 8.668 210.553 8.668H210.425V8.348H217.689V11.1H217.753C217.988 10.396 218.297 9.82 218.681 9.372C219.065 8.90267 219.545 8.55067 220.121 8.316C220.718 8.08133 221.412 7.964 222.201 7.964C223.396 7.964 224.302 8.20933 224.921 8.7C225.561 9.19067 225.881 9.87333 225.881 10.748C225.881 11.6653 225.518 12.38 224.793 12.892C224.068 13.404 223.076 13.66 221.817 13.66C221.817 12.572 221.742 11.7187 221.593 11.1C221.444 10.4813 221.23 10.044 220.953 9.788C220.697 9.532 220.366 9.404 219.961 9.404C219.641 9.404 219.342 9.48933 219.065 9.66C218.788 9.83067 218.542 10.1187 218.329 10.524C218.137 10.908 217.977 11.4307 217.849 12.092C217.742 12.732 217.689 13.5427 217.689 14.524V23.1C217.689 23.6973 217.806 24.1453 218.041 24.444C218.297 24.7427 218.606 24.9453 218.969 25.052C219.332 25.1373 219.662 25.18 219.961 25.18H220.953V25.5H210.265ZM2.048 53.204C1.89867 52.7987 1.71733 52.4893 1.504 52.276C1.312 52.0413 1.088 51.8813 0.832 51.796C0.576 51.7107 0.298667 51.668 0 51.668V51.348H9.92V51.668H8.704C8.10667 51.668 7.66933 51.7533 7.392 51.924C7.136 52.0947 7.008 52.372 7.008 52.756C7.008 52.9267 7.02933 53.1293 7.072 53.364C7.136 53.5773 7.21067 53.8227 7.296 54.1L9.952 61.492C10.1653 62.068 10.3787 62.644 10.592 63.22C10.8053 63.796 11.008 64.372 11.2 64.948C11.4133 65.5027 11.6053 66.068 11.776 66.644C11.904 66.2173 12.0533 65.716 12.224 65.14C12.416 64.564 12.608 63.9987 12.8 63.444C12.992 62.8893 13.1413 62.4627 13.248 62.164L15.904 54.356C16.0107 54.0787 16.0853 53.8227 16.128 53.588C16.192 53.3533 16.224 53.14 16.224 52.948C16.224 52.5213 16.0427 52.2013 15.68 51.988C15.3173 51.7747 14.6667 51.668 13.728 51.668H12.992V51.348H19.392V51.668H19.232C18.6987 51.668 18.2613 51.7213 17.92 51.828C17.5787 51.9347 17.2907 52.1587 17.056 52.5C16.8427 52.82 16.6187 53.3213 16.384 54.004L11.424 68.5H7.808L2.048 53.204ZM19.9503 68.5V68.18H20.3343C20.6543 68.18 20.9849 68.1373 21.3263 68.052C21.6889 67.9453 21.9876 67.7427 22.2223 67.444C22.4783 67.1453 22.6063 66.6973 22.6063 66.1V53.62C22.6063 53.044 22.4783 52.6173 22.2223 52.34C21.9663 52.0627 21.6569 51.8813 21.2943 51.796C20.9529 51.7107 20.6329 51.668 20.3343 51.668H19.9503V51.348H27.4703V66.1C27.4703 66.6973 27.5876 67.1453 27.8223 67.444C28.0783 67.7427 28.3876 67.9453 28.7503 68.052C29.1129 68.1373 29.4436 68.18 29.7423 68.18H30.1263V68.5H19.9503ZM24.8783 48.468C24.2596 48.468 23.7263 48.2867 23.2783 47.924C22.8516 47.54 22.6383 46.9533 22.6383 46.164C22.6383 45.3533 22.8623 44.7667 23.3103 44.404C23.7583 44.0413 24.2916 43.86 24.9103 43.86C25.5076 43.86 26.0303 44.0413 26.4783 44.404C26.9263 44.7667 27.1503 45.3533 27.1503 46.164C27.1503 46.9533 26.9263 47.54 26.4783 47.924C26.0303 48.2867 25.4969 48.468 24.8783 48.468ZM37.7283 68.82C36.3416 68.82 35.1896 68.66 34.2723 68.34C33.3763 67.9987 32.7043 67.5507 32.2563 66.996C31.8296 66.42 31.6163 65.78 31.6163 65.076C31.6163 64.372 31.7869 63.8493 32.1283 63.508C32.4696 63.1667 32.8749 62.9427 33.3443 62.836C33.8136 62.708 34.2296 62.644 34.5923 62.644C34.5923 64.0947 34.7096 65.2573 34.9443 66.132C35.2003 66.9853 35.5843 67.5933 36.0963 67.956C36.6296 68.3187 37.3016 68.5 38.1123 68.5C39.1363 68.5 39.9576 68.244 40.5763 67.732C41.2163 67.22 41.5363 66.42 41.5363 65.332C41.5363 64.6067 41.3869 64.0413 41.0883 63.636C40.7896 63.2307 40.3203 62.8787 39.6803 62.58C39.0616 62.26 38.2616 61.9187 37.2803 61.556C36.3203 61.1933 35.4349 60.7987 34.6243 60.372C33.8136 59.9453 33.1629 59.4013 32.6723 58.74C32.1816 58.0573 31.9363 57.172 31.9363 56.084C31.9363 54.356 32.5549 53.076 33.7923 52.244C35.0509 51.3907 36.7363 50.964 38.8483 50.964C40.1923 50.964 41.2696 51.1133 42.0803 51.412C42.8909 51.6893 43.4776 52.0627 43.8403 52.532C44.2243 53.0013 44.4163 53.5133 44.4163 54.068C44.4163 54.6867 44.1603 55.188 43.6483 55.572C43.1576 55.956 42.3256 56.148 41.1523 56.148C41.1523 54.3347 40.9176 53.076 40.4483 52.372C39.9789 51.6467 39.2749 51.284 38.3363 51.284C37.8883 51.284 37.4403 51.3693 36.9923 51.54C36.5443 51.7107 36.1709 52.0093 35.8723 52.436C35.5736 52.8413 35.4243 53.428 35.4243 54.196C35.4243 54.8787 35.5736 55.4227 35.8723 55.828C36.1923 56.2333 36.6936 56.596 37.3763 56.916C38.0589 57.236 38.9763 57.6093 40.1283 58.036C41.1096 58.3987 41.9629 58.804 42.6883 59.252C43.4136 59.6787 43.9789 60.2227 44.3843 60.884C44.7896 61.524 44.9923 62.3453 44.9923 63.348C44.9923 65.0333 44.3736 66.3667 43.1363 67.348C41.9203 68.3293 40.1176 68.82 37.7283 68.82ZM46.8253 68.5V68.18H47.2093C47.5293 68.18 47.8599 68.1373 48.2013 68.052C48.5639 67.9453 48.8626 67.7427 49.0973 67.444C49.3533 67.1453 49.4813 66.6973 49.4813 66.1V53.62C49.4813 53.044 49.3533 52.6173 49.0973 52.34C48.8413 52.0627 48.5319 51.8813 48.1693 51.796C47.8279 51.7107 47.5079 51.668 47.2093 51.668H46.8253V51.348H54.3453V66.1C54.3453 66.6973 54.4626 67.1453 54.6973 67.444C54.9533 67.7427 55.2626 67.9453 55.6253 68.052C55.9879 68.1373 56.3186 68.18 56.6173 68.18H57.0013V68.5H46.8253ZM51.7533 48.468C51.1346 48.468 50.6013 48.2867 50.1533 47.924C49.7266 47.54 49.5133 46.9533 49.5133 46.164C49.5133 45.3533 49.7373 44.7667 50.1853 44.404C50.6333 44.0413 51.1666 43.86 51.7853 43.86C52.3826 43.86 52.9053 44.0413 53.3533 44.404C53.8013 44.7667 54.0253 45.3533 54.0253 46.164C54.0253 46.9533 53.8013 47.54 53.3533 47.924C52.9053 48.2867 52.3719 48.468 51.7533 48.468ZM65.3073 68.82C63.8779 68.82 62.7366 68.4467 61.8833 67.7C61.0299 66.9533 60.6033 65.6413 60.6033 63.764V51.668H58.2033V51.348C59.2486 51.348 60.1659 51.2413 60.9553 51.028C61.7446 50.8147 62.4273 50.4733 63.0033 50.004C63.5366 49.5773 63.9739 49.044 64.3153 48.404C64.6779 47.7427 64.9553 46.9747 65.1473 46.1H65.4673V51.348H69.5633V51.668H65.4673V65.204C65.4673 66.2067 65.6593 66.9427 66.0433 67.412C66.4273 67.8813 66.9926 68.116 67.7393 68.116C68.0379 68.116 68.3579 68.084 68.6993 68.02C69.0619 67.956 69.4459 67.8493 69.8513 67.7V68.02C69.5099 68.1693 68.9446 68.34 68.1553 68.532C67.3873 68.724 66.4379 68.82 65.3073 68.82ZM71.044 68.5V68.18H71.428C71.748 68.18 72.0787 68.1373 72.42 68.052C72.7827 67.9453 73.0813 67.7427 73.316 67.444C73.572 67.1453 73.7 66.6973 73.7 66.1V53.62C73.7 53.044 73.572 52.6173 73.316 52.34C73.06 52.0627 72.7507 51.8813 72.388 51.796C72.0467 51.7107 71.7267 51.668 71.428 51.668H71.044V51.348H78.564V66.1C78.564 66.6973 78.6813 67.1453 78.916 67.444C79.172 67.7427 79.4813 67.9453 79.844 68.052C80.2067 68.1373 80.5373 68.18 80.836 68.18H81.22V68.5H71.044ZM75.972 48.468C75.3533 48.468 74.82 48.2867 74.372 47.924C73.9453 47.54 73.732 46.9533 73.732 46.164C73.732 45.3533 73.956 44.7667 74.404 44.404C74.852 44.0413 75.3853 43.86 76.004 43.86C76.6013 43.86 77.124 44.0413 77.572 44.404C78.02 44.7667 78.244 45.3533 78.244 46.164C78.244 46.9533 78.02 47.54 77.572 47.924C77.124 48.2867 76.5907 48.468 75.972 48.468ZM82.294 68.5V68.18H82.678C82.998 68.18 83.3287 68.1373 83.67 68.052C84.0327 67.9453 84.3313 67.7427 84.566 67.444C84.822 67.1453 84.95 66.6973 84.95 66.1V53.62C84.95 53.044 84.822 52.6173 84.566 52.34C84.31 52.0627 84.0007 51.8813 83.638 51.796C83.2967 51.7107 82.9767 51.668 82.678 51.668H82.294V51.348H89.814V54.26H89.878C90.134 53.3 90.4967 52.5853 90.966 52.116C91.4353 51.6467 91.9793 51.3373 92.598 51.188C93.2167 51.0173 93.8353 50.932 94.454 50.932C96.3313 50.932 97.7287 51.4227 98.646 52.404C99.5633 53.3853 100.022 54.9533 100.022 57.108V65.908C100.022 66.5693 100.097 67.06 100.246 67.38C100.417 67.7 100.662 67.9133 100.982 68.02C101.302 68.1267 101.697 68.18 102.166 68.18H102.262V68.5H95.158V56.052C95.158 54.6653 94.9767 53.6307 94.614 52.948C94.2513 52.244 93.6327 51.892 92.758 51.892C92.0113 51.892 91.414 52.148 90.966 52.66C90.5393 53.172 90.2407 53.8867 90.07 54.804C89.8993 55.7213 89.814 56.7773 89.814 57.972V66.1C89.814 66.6973 89.9313 67.1453 90.166 67.444C90.422 67.7427 90.7313 67.9453 91.094 68.052C91.4567 68.1373 91.7873 68.18 92.086 68.18H92.47V68.5H82.294ZM110.646 76.18C108 76.18 106.091 75.8493 104.918 75.188C103.766 74.5267 103.19 73.6093 103.19 72.436C103.19 71.796 103.371 71.2413 103.734 70.772C104.096 70.3027 104.683 69.9187 105.494 69.62C106.304 69.3427 107.392 69.172 108.758 69.108C107.606 68.916 106.71 68.5 106.07 67.86C105.43 67.22 105.11 66.4627 105.11 65.588C105.11 64.7347 105.408 64.02 106.006 63.444C106.603 62.868 107.435 62.3987 108.502 62.036C107.328 61.6733 106.4 61.0547 105.718 60.18C105.056 59.284 104.726 58.1747 104.726 56.852C104.726 54.9747 105.27 53.524 106.358 52.5C107.446 51.4547 109.131 50.932 111.414 50.932C112.246 50.932 113.014 51.0493 113.718 51.284C114.443 51.4973 115.072 51.8173 115.606 52.244C115.99 51.732 116.342 51.3267 116.662 51.028C116.982 50.708 117.312 50.484 117.654 50.356C117.995 50.2067 118.358 50.132 118.742 50.132C119.424 50.132 119.947 50.3027 120.31 50.644C120.672 50.964 120.854 51.4013 120.854 51.956C120.854 52.3827 120.694 52.7987 120.374 53.204C120.054 53.588 119.456 53.78 118.582 53.78C118.582 53.1827 118.443 52.724 118.166 52.404C117.888 52.0627 117.526 51.892 117.078 51.892C116.843 51.892 116.619 51.9453 116.406 52.052C116.214 52.1373 116.032 52.2653 115.862 52.436C116.502 52.9693 116.992 53.6093 117.334 54.356C117.696 55.1027 117.878 55.9347 117.878 56.852C117.878 58.4733 117.355 59.8173 116.31 60.884C115.264 61.9293 113.632 62.452 111.414 62.452C110.944 62.452 110.496 62.4307 110.07 62.388C109.643 62.324 109.238 62.2387 108.854 62.132C108.448 62.3453 108.171 62.5693 108.022 62.804C107.872 63.0387 107.798 63.3053 107.798 63.604C107.798 64.0733 107.968 64.4253 108.31 64.66C108.651 64.8947 109.184 65.012 109.91 65.012H113.782C115.211 65.012 116.374 65.204 117.27 65.588C118.166 65.972 118.827 66.5373 119.254 67.284C119.702 68.0093 119.926 68.884 119.926 69.908C119.926 71.8707 119.168 73.4067 117.654 74.516C116.139 75.6253 113.803 76.18 110.646 76.18ZM111.03 75.86C112.096 75.86 113.035 75.7213 113.846 75.444C114.656 75.188 115.286 74.772 115.734 74.196C116.182 73.6413 116.406 72.9053 116.406 71.988C116.406 71.1133 116.171 70.4307 115.702 69.94C115.254 69.4707 114.518 69.236 113.494 69.236H110.23C109.462 69.236 108.832 69.3533 108.342 69.588C107.872 69.844 107.52 70.2067 107.286 70.676C107.051 71.1453 106.934 71.7213 106.934 72.404C106.934 73.1933 107.083 73.844 107.382 74.356C107.702 74.868 108.16 75.2413 108.758 75.476C109.376 75.732 110.134 75.86 111.03 75.86ZM111.318 62.132C111.851 62.132 112.278 61.9613 112.598 61.62C112.918 61.2787 113.142 60.724 113.27 59.956C113.419 59.188 113.494 58.1533 113.494 56.852C113.494 55.4653 113.419 54.3667 113.27 53.556C113.142 52.7453 112.918 52.1587 112.598 51.796C112.278 51.4333 111.84 51.252 111.286 51.252C110.752 51.252 110.315 51.4333 109.974 51.796C109.654 52.1587 109.419 52.756 109.27 53.588C109.142 54.3987 109.078 55.508 109.078 56.916C109.078 58.196 109.142 59.22 109.27 59.988C109.419 60.756 109.654 61.3107 109.974 61.652C110.315 61.972 110.763 62.132 111.318 62.132ZM136.828 68.82C134.95 68.82 133.553 68.3293 132.636 67.348C131.718 66.3667 131.26 64.7987 131.26 62.644V53.94C131.26 53.2787 131.174 52.788 131.004 52.468C130.854 52.148 130.62 51.9347 130.299 51.828C130.001 51.7213 129.606 51.668 129.116 51.668H129.02V51.348H136.124V63.7C136.124 64.6173 136.198 65.3853 136.348 66.004C136.518 66.6227 136.774 67.092 137.116 67.412C137.478 67.7107 137.948 67.86 138.524 67.86C139.292 67.86 139.889 67.604 140.316 67.092C140.742 66.58 141.041 65.8653 141.212 64.948C141.382 64.0307 141.468 62.9747 141.468 61.78V53.748C141.468 53.1293 141.34 52.6813 141.084 52.404C140.849 52.1053 140.55 51.9133 140.188 51.828C139.846 51.7213 139.516 51.668 139.196 51.668H139.068V51.348H146.332V66.228C146.332 66.7827 146.46 67.2093 146.716 67.508C146.972 67.7853 147.27 67.9667 147.612 68.052C147.974 68.1373 148.305 68.18 148.604 68.18H148.732V68.5H141.468V65.492H141.404C141.212 66.196 140.956 66.772 140.636 67.22C140.316 67.668 139.953 68.0093 139.548 68.244C139.142 68.4573 138.705 68.6067 138.236 68.692C137.766 68.7773 137.297 68.82 136.828 68.82ZM156.603 68.82C155.217 68.82 154.065 68.66 153.147 68.34C152.251 67.9987 151.579 67.5507 151.131 66.996C150.705 66.42 150.491 65.78 150.491 65.076C150.491 64.372 150.662 63.8493 151.003 63.508C151.345 63.1667 151.75 62.9427 152.219 62.836C152.689 62.708 153.105 62.644 153.467 62.644C153.467 64.0947 153.585 65.2573 153.819 66.132C154.075 66.9853 154.459 67.5933 154.971 67.956C155.505 68.3187 156.177 68.5 156.987 68.5C158.011 68.5 158.833 68.244 159.451 67.732C160.091 67.22 160.411 66.42 160.411 65.332C160.411 64.6067 160.262 64.0413 159.963 63.636C159.665 63.2307 159.195 62.8787 158.555 62.58C157.937 62.26 157.137 61.9187 156.155 61.556C155.195 61.1933 154.31 60.7987 153.499 60.372C152.689 59.9453 152.038 59.4013 151.547 58.74C151.057 58.0573 150.811 57.172 150.811 56.084C150.811 54.356 151.43 53.076 152.667 52.244C153.926 51.3907 155.611 50.964 157.723 50.964C159.067 50.964 160.145 51.1133 160.955 51.412C161.766 51.6893 162.353 52.0627 162.715 52.532C163.099 53.0013 163.291 53.5133 163.291 54.068C163.291 54.6867 163.035 55.188 162.523 55.572C162.033 55.956 161.201 56.148 160.027 56.148C160.027 54.3347 159.793 53.076 159.323 52.372C158.854 51.6467 158.15 51.284 157.211 51.284C156.763 51.284 156.315 51.3693 155.867 51.54C155.419 51.7107 155.046 52.0093 154.747 52.436C154.449 52.8413 154.299 53.428 154.299 54.196C154.299 54.8787 154.449 55.4227 154.747 55.828C155.067 56.2333 155.569 56.596 156.251 56.916C156.934 57.236 157.851 57.6093 159.003 58.036C159.985 58.3987 160.838 58.804 161.563 59.252C162.289 59.6787 162.854 60.2227 163.259 60.884C163.665 61.524 163.867 62.3453 163.867 63.348C163.867 65.0333 163.249 66.3667 162.011 67.348C160.795 68.3293 158.993 68.82 156.603 68.82Z" fill="white"/>
</svg>
