<svg width="36" height="36" viewBox="0 0 36 36" fill="none" xmlns="http://www.w3.org/2000/svg">
<g id="WhatsApp">
<path id="Vector" fill-rule="evenodd" clip-rule="evenodd" d="M19.2311 4.43757C22.5743 4.60188 25.6896 5.98053 28.069 8.3615C30.607 10.9011 32.004 14.2769 32.0026 17.8669C31.9996 25.2752 25.9686 31.303 18.5598 31.303C15.7737 31.303 13.5598 30.4469 12.1302 29.6676L5.00391 31.536L6.91107 24.5734C5.73467 22.5358 5.11565 20.2244 5.11662 17.8562C5.1196 10.4481 11.1501 4.42096 18.5596 4.42096L19.2311 4.43757ZM12.4603 27.2352L12.8684 27.4772C14.5839 28.4947 16.5503 29.033 18.5552 29.0338H18.5597C24.7181 29.0338 29.7304 24.0239 29.7328 17.8661C29.734 14.8822 28.5729 12.0763 26.4634 9.96547C24.3538 7.85449 21.5486 6.69127 18.5642 6.69031C12.4011 6.69031 7.38878 11.6997 7.38632 17.857C7.38548 19.9672 7.97617 22.0223 9.09462 23.8003L9.36028 24.2229L8.23155 28.3439L12.4603 27.2352ZM25.3322 21.062C25.2482 20.9219 25.0243 20.8379 24.6884 20.6698C24.3525 20.5018 22.7012 19.6896 22.3933 19.5775C22.0854 19.4656 21.8614 19.4096 21.6375 19.7456C21.4137 20.0816 20.7699 20.8379 20.5739 21.062C20.378 21.286 20.1821 21.3141 19.8463 21.146C19.5104 20.978 18.4281 20.6234 17.1451 19.4797C16.1465 18.5894 15.4724 17.4901 15.2765 17.154C15.0806 16.8179 15.2556 16.6361 15.4237 16.4688C15.5749 16.3183 15.7597 16.0767 15.9276 15.8806C16.0956 15.6846 16.1515 15.5445 16.2635 15.3205C16.3755 15.0964 16.3195 14.9004 16.2355 14.7324C16.1515 14.5643 15.4798 12.9118 15.1999 12.2395C14.9272 11.585 14.6503 11.6736 14.4441 11.6632C14.2484 11.6535 14.0243 11.6514 13.8004 11.6514C13.5765 11.6514 13.2126 11.7354 12.9047 12.0715C12.5968 12.4076 11.7291 13.2199 11.7291 14.8723C11.7291 16.5248 12.9327 18.1211 13.1006 18.3452C13.2686 18.5694 15.4691 21.9602 18.8386 23.4146C19.64 23.7605 20.2656 23.967 20.7534 24.1218C21.5581 24.3773 22.2903 24.3413 22.8691 24.2548C23.5144 24.1584 24.8564 23.4426 25.1363 22.6585C25.4162 21.8741 25.4162 21.202 25.3322 21.062Z" fill="white"/>
<g id="Fill">
<mask id="mask0_109_575" style="mask-type:alpha" maskUnits="userSpaceOnUse" x="7" y="6" width="23" height="24">
<path id="Mask" fill-rule="evenodd" clip-rule="evenodd" d="M12.4607 27.2352L12.8688 27.4772C14.5843 28.4947 16.5507 29.033 18.5556 29.0338H18.5601C24.7185 29.0338 29.7308 24.0239 29.7332 17.8661C29.7344 14.8822 28.5733 12.0763 26.4638 9.96547C24.3542 7.85449 21.549 6.69128 18.5646 6.69031C12.4015 6.69031 7.38918 11.6997 7.38672 17.857C7.38588 19.9672 7.97657 22.0223 9.09502 23.8003L9.36068 24.2229L8.23194 28.3439L12.4607 27.2352ZM25.3326 21.062C25.2486 20.9219 25.0247 20.8379 24.6888 20.6698C24.3529 20.5018 22.7016 19.6896 22.3937 19.5775C22.0858 19.4656 21.8618 19.4096 21.6379 19.7456C21.4141 20.0816 20.7703 20.8379 20.5743 21.062C20.3784 21.286 20.1825 21.3141 19.8467 21.146C19.5108 20.978 18.4285 20.6234 17.1455 19.4797C16.1469 18.5894 15.4728 17.4901 15.2769 17.154C15.081 16.8179 15.256 16.6362 15.4241 16.4688C15.5753 16.3183 15.7601 16.0767 15.928 15.8806C16.096 15.6846 16.1519 15.5445 16.2639 15.3205C16.3759 15.0964 16.3199 14.9005 16.2359 14.7324C16.1519 14.5643 15.4802 12.9118 15.2003 12.2395C14.9276 11.585 14.6507 11.6736 14.4445 11.6632C14.2488 11.6535 14.0247 11.6514 13.8008 11.6514C13.5769 11.6514 13.213 11.7354 12.9051 12.0715C12.5972 12.4076 11.7295 13.2199 11.7295 14.8723C11.7295 16.5248 12.9331 18.1211 13.101 18.3452C13.269 18.5694 15.4695 21.9602 18.839 23.4146C19.6404 23.7605 20.266 23.967 20.7538 24.1218C21.5585 24.3773 22.2907 24.3413 22.8695 24.2548C23.5148 24.1584 24.8568 23.4426 25.1367 22.6585C25.4166 21.8742 25.4166 21.202 25.3326 21.062Z" fill="black"/>
</mask>
<g mask="url(#mask0_109_575)">
<path id="Gradient" d="M37.0199 -0.75H-0.75V37.02H37.0199V-0.75Z" fill="url(#paint0_linear_109_575)"/>
</g>
</g>
</g>
<defs>
<linearGradient id="paint0_linear_109_575" x1="18.135" y1="37.02" x2="18.135" y2="-0.75" gradientUnits="userSpaceOnUse">
<stop stop-color="#25CF43"/>
<stop offset="1" stop-color="#61FD7D"/>
</linearGradient>
</defs>
</svg>
