<svg width="526" height="177" viewBox="0 0 526 177" fill="none" xmlns="http://www.w3.org/2000/svg">
<path d="M2.95813 4.328H30.9901C43.3741 4.328 49.3261 10.856 49.3261 17.672C49.3261 33.128 26.9581 38.984 16.8781 39.272V44.36C16.8781 59.816 17.4541 63.944 18.3181 65H2.95813C3.82213 63.944 4.39813 59.816 4.39813 44.36V24.968C4.39813 9.512 3.82213 5.384 2.95813 4.328ZM22.1581 5.768H16.8781V37.928C27.8221 37.544 36.0781 31.304 36.0781 20.168C36.0781 12.68 31.4701 5.768 22.1581 5.768ZM88.8106 16.04C98.6026 16.04 98.6026 28.424 91.0186 28.424C87.4666 28.424 83.8186 24.104 80.0746 24.104C74.9866 24.104 72.4906 32.264 72.4906 36.296V44.36C72.4906 59.816 73.0666 63.944 73.9306 65H58.5706C59.4346 63.944 60.0106 59.816 60.0106 44.36V32.744C60.0106 25.352 58.7626 23.816 58.5706 23.048C60.2026 23.048 65.8666 21.992 72.4906 17V29.288C76.3306 20.552 83.3386 16.04 88.8106 16.04ZM124.933 65.96C94.1169 65.96 94.1169 16.04 124.933 16.04C156.325 16.04 156.325 65.96 124.933 65.96ZM125.029 17.48C109.765 17.48 111.493 64.52 125.221 64.52C139.141 64.52 139.909 17.48 125.029 17.48ZM159.122 7.496C159.122 3.752 162.29 0.584 166.034 0.584C169.874 0.584 173.042 3.752 173.042 7.496C173.042 11.24 169.874 14.312 166.034 14.312C162.29 14.312 159.122 11.24 159.122 7.496ZM159.41 65V32.744C159.41 25.352 158.162 23.816 157.97 23.048C159.602 23.048 165.266 21.992 171.89 17V61.928C171.89 77.864 163.25 82.76 149.234 82.76C158.642 79.304 159.41 74.024 159.41 65ZM223.831 48.968C222.583 60.104 214.135 65.96 205.111 65.96C176.023 65.96 174.199 16.04 205.399 16.04C214.039 16.04 223.927 20.648 223.927 30.44C223.927 41.864 209.911 42.536 202.039 45.704C197.527 47.432 196.855 51.08 200.023 54.632C202.231 57.128 206.263 58.856 210.391 58.856C215.479 58.856 220.951 56.264 223.831 48.968ZM205.399 17.48C195.991 17.48 192.343 35.912 196.951 48.392C201.079 40.808 212.983 41.192 212.983 26.6C212.983 22.952 210.295 17.48 205.399 17.48ZM275.057 27.08C274.961 31.112 272.081 33.128 269.201 33.128C266.321 33.128 263.633 31.208 263.633 27.368C263.633 22.664 262.001 17.48 256.529 17.48C247.985 17.48 245.681 31.016 245.681 37.16C245.681 47.912 250.289 59.144 260.561 59.144C265.937 59.144 271.409 55.304 274.385 48.968C273.137 60.104 264.689 65.96 255.665 65.96C241.073 65.96 233.009 53 233.009 40.232C233.105 25.928 242.513 15.944 257.105 16.04C265.841 16.04 275.057 19.784 275.057 27.08ZM281.381 18.44V17C285.221 17 293.285 14.12 300.485 5.288V17H307.013V18.44H300.485V56.072C300.485 58.28 300.389 62.984 303.461 62.984C304.805 62.984 306.245 62.216 307.301 61.544C304.133 65.576 300.005 65.96 298.469 65.96C287.909 65.96 288.005 56.456 288.005 48.296V23.528C288.005 19.016 287.333 18.44 281.381 18.44ZM327.488 65.48C323.504 65.48 322.592 64.04 320 64.04C318.896 64.04 317.552 64.28 315.536 65H315.056C315.488 64.472 315.776 62.408 315.776 54.68V38.792C315.776 35.096 315.152 34.328 315.056 33.944C315.872 33.944 318.704 33.416 322.016 30.92V42.824C323.888 41.576 326.624 40.52 328.784 40.472C342.704 40.472 342.848 65.48 327.488 65.48ZM322.016 43.544V59.192C322.016 61.688 323.36 64.712 326.576 64.712C335.696 64.712 334.448 42.536 325.568 42.536C324.704 42.536 322.928 42.92 322.016 43.544ZM361.009 48.488L355.729 66.152C353.905 72.248 350.353 74.36 347.137 74.36C343.489 74.36 340.273 71.72 340.273 68.984C340.273 66.968 341.713 65.96 343.201 65.96C344.593 65.96 345.985 66.92 345.985 68.84C345.985 71.624 347.233 73.016 348.865 73.016C350.785 73.016 353.761 71.624 351.313 65.048L346.225 51.32C343.345 43.592 342.241 41.528 341.617 41H349.633C349.393 41.528 349.825 43.448 352.753 51.176L356.497 61.016L360.433 47.864C361.681 44.456 360.577 42.728 358.561 41H365.521C363.361 42.824 362.161 44.6 361.009 48.488ZM381.452 65H366.956C371.372 61.352 373.58 58.28 377.612 48.104L394.892 4.328H396.428L413.9 44.36C420.716 59.816 423.308 63.944 424.748 65H406.508C406.796 64.04 407.18 60.488 401.804 47.816H379.148C375.212 57.704 377.516 61.544 381.452 65ZM389.708 21.32L379.724 46.376H401.036L389.708 21.32ZM457.487 16.04C462.671 16.04 466.031 17.864 468.047 20.936C472.463 20.552 476.111 16.04 482.831 16.04C493.007 16.04 496.175 22.856 496.079 32.456V44.36C495.983 59.816 496.751 63.944 497.615 65H482.159C483.023 63.944 483.599 59.816 483.599 44.36V29.192C483.599 25.064 483.791 18.824 478.319 18.824C475.535 18.824 472.175 21.896 468.815 22.28C470.159 24.968 470.735 28.52 470.735 32.456V44.36C470.735 59.816 471.311 63.944 472.175 65H456.815C457.679 63.944 458.255 59.816 458.255 44.36V29.192C458.255 25.064 458.447 18.824 452.879 18.824C449.999 18.824 448.079 21.032 445.391 21.8V44.36C445.391 59.816 445.967 63.944 446.831 65H431.471C432.335 63.944 432.911 59.816 432.911 44.36V17C436.175 19.4 439.151 20.936 442.223 20.936C446.831 20.936 450.479 16.04 457.487 16.04ZM509.148 7.496C509.148 3.752 512.316 0.679998 516.06 0.679998C519.9 0.679998 523.068 3.752 523.068 7.496C523.068 11.24 519.9 14.312 516.06 14.312C512.316 14.312 509.148 11.24 509.148 7.496ZM523.068 65H507.708C508.572 63.944 509.148 59.816 509.148 44.36V32.744C509.148 25.352 507.9 23.816 507.708 23.048C509.34 23.048 515.004 21.992 521.628 17V44.36C521.628 59.816 522.204 63.944 523.068 65ZM78.2364 100.808C66.0444 100.808 61.5324 113.768 61.5324 124.136C61.5324 143.816 72.3804 153.704 83.1324 153.704C90.1404 153.704 97.1484 149.384 100.988 140.744C99.4524 153.704 88.1244 161.96 76.4124 161.96C59.8044 161.96 48.3804 146.6 48.2844 131.24C48.2844 112.136 60.8604 99.368 79.6764 99.368C90.1404 99.368 99.6444 104.072 99.6444 111.656C99.6444 115.592 96.5724 117.608 93.5004 117.608C90.4284 117.608 87.3564 115.592 87.3564 111.656C87.3564 104.168 83.4204 100.808 78.2364 100.808ZM133.22 161.96C102.404 161.96 102.404 112.04 133.22 112.04C164.612 112.04 164.612 161.96 133.22 161.96ZM133.316 113.48C118.052 113.48 119.78 160.52 133.508 160.52C147.428 160.52 148.196 113.48 133.316 113.48ZM182.193 161H166.833C167.697 159.944 168.273 155.816 168.273 140.36V108.584C168.273 101.192 167.025 99.656 166.833 98.888C168.465 98.888 174.129 97.832 180.753 92.84V140.36C180.753 155.816 181.329 159.944 182.193 161ZM208.087 161H192.727C193.591 159.944 194.167 155.816 194.167 140.36V108.584C194.167 101.192 192.919 99.656 192.727 98.888C194.359 98.888 200.023 97.832 206.647 92.84V140.36C206.647 155.816 207.223 159.944 208.087 161ZM259.325 144.968C258.077 156.104 249.629 161.96 240.605 161.96C211.517 161.96 209.693 112.04 240.893 112.04C249.533 112.04 259.421 116.648 259.421 126.44C259.421 137.864 245.405 138.536 237.533 141.704C233.021 143.432 232.349 147.08 235.517 150.632C237.725 153.128 241.757 154.856 245.885 154.856C250.973 154.856 256.445 152.264 259.325 144.968ZM240.893 113.48C231.485 113.48 227.837 131.912 232.445 144.392C236.573 136.808 248.477 137.192 248.477 122.6C248.477 118.952 245.789 113.48 240.893 113.48ZM310.551 123.08C310.455 127.112 307.575 129.128 304.695 129.128C301.815 129.128 299.127 127.208 299.127 123.368C299.127 118.664 297.495 113.48 292.023 113.48C283.479 113.48 281.175 127.016 281.175 133.16C281.175 143.912 285.783 155.144 296.055 155.144C301.431 155.144 306.903 151.304 309.879 144.968C308.631 156.104 300.183 161.96 291.159 161.96C276.567 161.96 268.503 149 268.503 136.232C268.599 121.928 278.007 111.944 292.599 112.04C301.335 112.04 310.551 115.784 310.551 123.08ZM316.874 114.44V113C320.714 113 328.778 110.12 335.978 101.288V113H342.506V114.44H335.978V152.072C335.978 154.28 335.882 158.984 338.954 158.984C340.298 158.984 341.738 158.216 342.794 157.544C339.626 161.576 335.498 161.96 333.962 161.96C323.402 161.96 323.498 152.456 323.498 144.296V119.528C323.498 115.016 322.826 114.44 316.874 114.44ZM353.429 103.496C353.429 99.752 356.597 96.68 360.341 96.68C364.181 96.68 367.349 99.752 367.349 103.496C367.349 107.24 364.181 110.312 360.341 110.312C356.597 110.312 353.429 107.24 353.429 103.496ZM367.349 161H351.989C352.853 159.944 353.429 155.816 353.429 140.36V128.744C353.429 121.352 352.181 119.816 351.989 119.048C353.621 119.048 359.285 117.992 365.909 113V140.36C365.909 155.816 366.485 159.944 367.349 161ZM400.539 161.96C369.723 161.96 369.723 112.04 400.539 112.04C431.931 112.04 431.931 161.96 400.539 161.96ZM400.635 113.48C385.371 113.48 387.099 160.52 400.827 160.52C414.747 160.52 415.515 113.48 400.635 113.48ZM435.592 140.36V113C438.856 115.4 441.832 116.936 444.904 116.936C449.512 116.936 454.888 112.04 461.896 112.04C471.304 112.04 476.296 116.84 476.296 127.208V140.36C476.296 155.816 476.872 159.944 477.736 161H462.376C463.24 159.944 463.816 155.816 463.816 140.36V125.192C463.816 121.064 463.144 115.496 458.248 114.728C454.792 114.152 450.568 117.608 448.072 117.896V140.36C448.072 155.816 448.648 159.944 449.512 161H434.152C435.016 159.944 435.592 155.816 435.592 140.36Z" fill="#333333"/>
</svg>
