<svg width="19" height="18" viewBox="0 0 19 18" fill="none" xmlns="http://www.w3.org/2000/svg">
<path d="M7.36847 14.484C8.97734 14.4841 10.5402 13.9472 11.8095 12.9583L16.598 17.7481C16.9558 18.0936 17.5258 18.0837 17.8713 17.7259C18.2083 17.3769 18.2083 16.8235 17.8713 16.4745L13.0827 11.6847C15.5359 8.52604 14.9646 3.97622 11.8067 1.52243C8.64878 -0.931372 4.10014 -0.359967 1.64696 2.79873C-0.806222 5.95744 -0.234961 10.5073 2.92295 12.9611C4.19429 13.9489 5.75855 14.4849 7.36847 14.484ZM3.52089 3.39405C5.64587 1.2685 9.09114 1.26846 11.2162 3.39398C13.3412 5.51949 13.3412 8.96563 11.2162 11.0912C9.09126 13.2167 5.64599 13.2168 3.52096 11.0913C3.52093 11.0912 3.52093 11.0912 3.52089 11.0912C1.39591 8.98116 1.38339 5.54758 3.49288 3.42206C3.5022 3.4127 3.51153 3.40338 3.52089 3.39405Z" fill="black"/>
</svg>
