<svg width="14" height="12" viewBox="0 0 14 12" fill="none" xmlns="http://www.w3.org/2000/svg">
<path d="M13.1428 1.84608H6.28487C6.28487 1.337 5.84547 0.923004 5.30517 0.923004H4.32546C3.78515 0.923004 3.34575 1.337 3.34575 1.84608H1.38634C1.11594 1.84608 0.896484 2.05239 0.896484 2.30762C0.896484 2.56285 1.11594 2.76916 1.38634 2.76916H3.34575C3.34575 3.27823 3.78515 3.69223 4.32546 3.69223H5.30517C5.84547 3.69223 6.28487 3.27823 6.28487 2.76916H13.1428C13.4132 2.76916 13.6327 2.56285 13.6327 2.30762C13.6327 2.05239 13.4132 1.84608 13.1428 1.84608ZM4.32546 2.76916V1.84608H5.30517L5.30566 2.30577C5.30566 2.3067 5.30517 2.30716 5.30517 2.30762C5.30517 2.30808 5.30566 2.30854 5.30566 2.30947V2.76916H4.32546Z" fill="black"/>
<path d="M13.1428 5.53846H10.2037C10.2037 5.02939 9.7643 4.61539 9.224 4.61539H8.24429C7.70398 4.61539 7.26458 5.02939 7.26458 5.53846H1.38634C1.11594 5.53846 0.896484 5.74477 0.896484 6C0.896484 6.25523 1.11594 6.46154 1.38634 6.46154H7.26458C7.26458 6.97062 7.70398 7.38462 8.24429 7.38462H9.224C9.7643 7.38462 10.2037 6.97062 10.2037 6.46154H13.1428C13.4132 6.46154 13.6327 6.25523 13.6327 6C13.6327 5.74477 13.4132 5.53846 13.1428 5.53846ZM8.24429 6.46154V5.53846H9.224L9.22448 5.99816C9.22448 5.99908 9.224 5.99954 9.224 6C9.224 6.00046 9.22448 6.00093 9.22448 6.00185V6.46154H8.24429Z" fill="black"/>
<path d="M13.1428 9.23085H6.28487C6.28487 8.72177 5.84547 8.30777 5.30517 8.30777H4.32546C3.78515 8.30777 3.34575 8.72177 3.34575 9.23085H1.38634C1.11594 9.23085 0.896484 9.43715 0.896484 9.69239C0.896484 9.94762 1.11594 10.1539 1.38634 10.1539H3.34575C3.34575 10.663 3.78515 11.077 4.32546 11.077H5.30517C5.84547 11.077 6.28487 10.663 6.28487 10.1539H13.1428C13.4132 10.1539 13.6327 9.94762 13.6327 9.69239C13.6327 9.43715 13.4132 9.23085 13.1428 9.23085ZM4.32546 10.1539V9.23085H5.30517L5.30566 9.69054L5.30517 9.69239L5.30566 9.69423V10.1539H4.32546Z" fill="black"/>
</svg>
